{"title":"Shanghai.Kiss.2007.BRRip.720p.x264.AAC-PRiSTiNE [P2PDL]","uid":13134936,"size":744942558,"categoryP":"video","categoryS":"hd___movies","magnet":"?xt=urn:btih:216da91639128d31077dae8709d8246f5a167832&amp;dn=Shanghai.Kiss.2007.BRRip.720p.x264.AAC-PRiSTiNE+%5BP2PDL%5D&amp;tr=udp%3A%2F%2Ftracker.leechers-paradise.org%3A6969&amp;tr=udp%3A%2F%2Fzer0day.ch%3A1337&amp;tr=udp%3A%2F%2Fopen.demonii.com%3A1337&amp;tr=udp%3A%2F%2Ftracker.coppersurfer.tk%3A6969&amp;tr=udp%3A%2F%2Fexodus.desync.com%3A6969","seeders":0,"leechers":1,"uploader":"VYTOP2PDL","files":7,"time":1451891388,"description":"____    ____ ____    ____ .___________.  ______   \r\n     /   /      /   / |           | /  __    \r\n    /   /      /   /  `---|  |----`|  |  |  | \r\n        /     _    _/       |  |     |  |  |  | \r\n       /        |  |         |  |     |  `--'  | \r\n    __/         |__|         |__|      ______/  \r\n                                                  \r\nPresenting Small Encodes with quality for years!\r\n                                                                                                   \r\n                                                                                                   \r\n\r\nShanghai.Kiss.2007.BRRip.720p.x264.AAC-PRiSTiNE\r\n\r\n\r\nGenre: Comedy, Drama, Romance \nhttp://www.imdb.com/title/tt0469184/\r\n\r\n\r\nFormat                                   : MPEG-4\r\nFile size                                : 697 MiB\r\nDuration                                 : 1h 45mn\r\nOverall bit rate                         : 920 Kbps\r\n\r\nVideo\r\nFormat                                   : AVC\r\nBit rate                                 : 837 Kbps\r\nWidth                                    : 1 278 pixels\r\nHeight                                   : 720 pixels\r\nDisplay aspect ratio                     : 16:9\r\nFrame rate mode                          : Constant\r\nFrame rate                               : 24.000 fps\r\nBit depth                                : 8 bits\r\nStream size                              : 634 MiB (91%)\r\nWriting library                          : x264\r\n\r\nAudio\r\nFormat                                   : AAC\r\nBit rate mode                            : Variable\r\nBit rate                                 : 79.9 Kbps\r\nChannel(s)                               : 2 channels\r\nChannel positions                        : Front: L R\r\nSampling rate                            : 44.1 KHz\r\nStream size                              : 60.5 MiB (9%)\r\nLanguage                                 : English\r\n\r\nSubtitle                                 : Yes (English)\r\n\r\nScreen Shots: (Click to view)\r\n \nhttp://ititli.com/c0 \nhttp://ititli.com/cA \nhttp://ititli.com/cl \nhttp://ititli.com/cm \nhttp://ititli.com/cx \nhttp://ititli.com/c7 \nhttp://ititli.com/cC \nhttp://ititli.com/cF \nhttp://ititli.com/cJ\r\n\r\n----------------------------------------------------------------------------------------------------\r\n\r\n\r\nEncoder Notes: Looking For Early Access To Anything You Can Provide WEBDL, DVDScr, DVDR, BluRay,\r\nDirect Audio, Music Releases and Seedboxes. If You Got anything to offer please contact us.\r\n\r\nSupport us by donating BC - 1FgwdzPsd1y25Gea8wP1qni35uGCtmkRCD\r\n\r\nSend some love!\r\nFind us and join us!","torrent":{"xt":"urn:btih:216da91639128d31077dae8709d8246f5a167832","amp;dn":"Shanghai.Kiss.2007.BRRip.720p.x264.AAC-PRiSTiNE+%5BP2PDL%5D","amp;tr":["udp%3A%2F%2Ftracker.leechers-paradise.org%3A6969","udp%3A%2F%2Fzer0day.ch%3A1337","udp%3A%2F%2Fopen.demonii.com%3A1337","udp%3A%2F%2Ftracker.coppersurfer.tk%3A6969","udp%3A%2F%2Fexodus.desync.com%3A6969"],"infoHash":"216da91639128d31077dae8709d8246f5a167832","infoHashBuffer":{"type":"Buffer","data":[33,109,169,22,57,18,141,49,7,125,174,135,9,216,36,111,90,22,120,50]},"announce":[],"urlList":[]}}